<svg width="373" height="291" viewBox="0 0 373 291" fill="none" xmlns="http://www.w3.org/2000/svg">
<path d="M257.365 287.043C219.697 274.068 174.998 248.86 133.945 255.351L77.6007 264.261C23.5067 272.814 -17.6911 222.295 8.63786 179.841C18.0321 164.693 19.1736 146.592 11.7144 130.628C-21.7445 59.017 102.737 -26.9893 164.586 8.37367C188.1 21.818 213.106 28.7768 240.01 20.5022L259.287 14.5733C305.138 0.47109 351.435 34.7177 343.542 76.8981C340.586 92.6963 345.412 108.857 356.813 121.338C401.596 170.363 346.784 317.846 257.365 287.043Z" fill="#ABB2E7"/>
<mask id="mask0_541_22416" style="mask-type:alpha" maskUnits="userSpaceOnUse" x="-1" y="0" width="374" height="292">
<path d="M256.432 287.043C218.765 274.068 174.066 248.86 133.012 255.351L76.6686 264.261C22.5746 272.814 -18.6232 222.295 7.70573 179.841C17.1 164.693 18.2415 146.592 10.7823 130.628C-22.6767 59.017 101.805 -26.9893 163.654 8.37365C187.168 21.818 212.174 28.7768 239.078 20.5022L258.354 14.5733C304.205 0.471068 350.503 34.7177 342.61 76.898C339.654 92.6963 344.48 108.857 355.881 121.338C400.664 170.363 345.852 317.846 256.432 287.043Z" fill="white"/>
</mask>
<g mask="url(#mask0_541_22416)">
<path d="M186.319 78.7882C188.803 85.2447 192.322 91.8254 193.771 94.3087L180.73 99.896C178.04 97.2058 171.664 91.3287 167.69 89.3421C162.722 86.8588 163.343 83.1339 164.585 82.5131C165.579 82.0164 168.725 82.3061 170.174 82.5131C167.276 78.1673 162.722 71.09 162.722 70.0967C162.722 68.855 165.827 66.3718 172.037 66.3718C178.247 66.3718 183.214 70.7175 186.319 78.7882Z" fill="#FEE6C2"/>
<path d="M143.47 115.416L144.712 124.108C143.677 128.04 139.496 135.903 131.051 135.903C122.606 135.903 119.252 128.04 118.631 124.108L121.736 111.691C120.701 111.691 118.383 108.339 117.389 94.9293C116.147 78.1671 124.22 69.4756 137.261 70.7173C150.301 71.9589 152.785 84.3753 152.785 98.6542C152.785 110.077 146.575 114.589 143.47 115.416Z" fill="#FEE6C2"/>
<path d="M131.051 130.316C122.605 130.316 118.424 124.936 117.389 122.246C84.4766 122.476 60.2596 150.183 57.1547 175.636C54.6708 195.999 53.8096 227.966 62.7435 243.926C62.1225 254.066 61.75 273.423 65.2275 278.389C69.5743 284.597 109.938 292.159 131.672 292.159C153.407 292.159 191.907 285.218 197.496 278.389C201.967 272.926 195.633 216.196 191.907 187.432C192.528 188.053 197.123 189.791 210.536 191.777C227.302 194.261 242.827 187.432 240.343 161.978C237.859 136.525 201.842 94.3088 196.874 93.0671C191.907 91.8255 176.382 98.0337 177.624 103.621C178.866 109.208 191.286 133.42 190.044 133.42C189.05 133.42 180.522 129.696 176.382 127.833C163.466 121.873 151.129 121.625 146.575 122.246C144.919 124.936 139.496 130.316 131.051 130.316Z" fill="#3F53D9"/>
<path d="M126.084 101.137L121.737 112.312C120.495 111.898 116.521 107.594 110.559 93.6875C104.598 79.7812 110.559 72.1658 114.285 70.0964C114.906 63.8882 129.81 53.3343 147.197 55.8176C164.585 58.3008 168.932 75.063 159.617 80.6503C152.165 85.1203 139.125 83.3406 133.536 81.892C132.294 84.3753 132.915 96.1708 129.81 91.2043C126.705 86.2377 122.358 88.721 121.737 93.6875C121.24 97.6608 124.428 100.31 126.084 101.137Z" fill="#050038"/>
<path d="M132.915 191.157C127.326 212.885 112.743 263.737 82.2242 262.159L95.035 256.964C113.913 244.05 128.154 207.712 132.915 191.157Z" fill="#050038"/>
<path d="M81.9946 203.573C90.2017 195.368 107.507 178.764 113.131 175.882C113.316 175.796 113.494 175.714 113.665 175.636C113.501 175.702 113.323 175.784 113.131 175.882C107.953 178.283 97.6308 183.454 93.7932 186.811L91.9303 176.878L88.8254 191.157L81.9946 203.573Z" fill="#050038"/>
<path d="M216.126 144.595L187.561 133.42C191.535 134.91 189.217 129.902 187.561 127.212L216.126 144.595Z" fill="#050038"/>
<path d="M213.643 191.777C219.604 172.904 233.928 163.633 240.345 161.357C240.966 165.703 240.842 176.505 235.377 184.948C229.912 193.391 218.611 193.019 213.643 191.777Z" fill="#050038"/>
<path d="M101.866 251.376C88.4526 241.939 70.1958 242.477 62.744 243.926C64.6069 249.1 70.5683 259.943 79.5105 261.93C88.4526 263.916 98.1398 255.722 101.866 251.376Z" fill="#050038"/>
<path d="M86.49 101.955C85.6419 100.931 84.1243 100.788 83.1003 101.636L78.5031 105.443C77.4792 106.291 77.3366 107.808 78.1847 108.832L147.248 192.192C148.096 193.215 149.613 193.358 150.637 192.51L155.235 188.703C156.258 187.855 156.401 186.338 155.553 185.314L86.49 101.955Z" fill="#F5A041"/>
<path d="M190.045 177.498L191.908 187.432C196.875 188.922 204.741 190.536 208.053 191.156C196.13 187.183 191.08 180.396 190.045 177.498Z" fill="#050038"/>
<path d="M129.81 186.19L118.632 176.878C118.632 175.015 121.737 173.153 119.253 166.944C117.266 161.978 118.839 159.495 119.874 158.874C122.979 161.978 124.842 165.579 127.326 162.599C130.43 158.874 131.672 150.803 134.777 150.803C137.882 150.803 142.85 159.495 143.471 161.978C144.092 164.461 140.987 173.773 137.882 176.257C135.398 178.243 131.465 183.707 129.81 186.19Z" fill="#FEE6C2"/>
<path d="M293.908 79.3508C293.908 77.8571 295.003 76.6461 296.354 76.6461H305.323C306.674 76.6461 307.769 77.8571 307.769 79.3508V295.726C307.769 297.22 306.674 298.431 305.323 298.431H296.354C295.003 298.431 293.908 297.22 293.908 295.726V79.3508Z" fill="#050038"/>
<path d="M302.423 162.833C302.423 161.513 300.824 160.442 298.851 160.442H269.063C267.631 160.442 266.337 161.015 265.776 161.897L255.389 178.237C255.008 178.835 255.008 179.511 255.389 180.109L265.776 196.449C266.337 197.331 267.631 197.904 269.063 197.904H298.851C300.824 197.904 302.423 196.833 302.423 195.512V162.833Z" fill="#050038"/>
<path d="M299.263 87.9268C299.263 86.5918 298.181 85.5095 296.846 85.5095H237.781C237.051 85.5095 236.36 85.8394 235.901 86.407L222.546 102.925C221.83 103.812 221.83 105.078 222.546 105.965L235.901 122.483C236.36 123.051 237.051 123.38 237.781 123.38H296.846C298.181 123.38 299.263 122.298 299.263 120.963V87.9268Z" fill="white"/>
<path d="M242.438 106.361C242.53 106.361 242.608 106.394 242.672 106.461L243.334 107.168C243.008 107.584 242.601 107.899 242.115 108.115C241.632 108.33 241.057 108.438 240.388 108.438C239.783 108.438 239.239 108.336 238.757 108.131C238.274 107.924 237.864 107.636 237.526 107.268C237.188 106.901 236.928 106.465 236.746 105.96C236.565 105.455 236.474 104.903 236.474 104.306C236.474 103.905 236.516 103.524 236.602 103.164C236.691 102.8 236.819 102.466 236.986 102.162C237.153 101.857 237.353 101.583 237.587 101.338C237.825 101.093 238.092 100.885 238.389 100.714C238.686 100.539 239.009 100.408 239.358 100.319C239.711 100.226 240.086 100.179 240.483 100.179C240.78 100.179 241.06 100.205 241.324 100.257C241.591 100.309 241.84 100.382 242.07 100.475C242.3 100.567 242.512 100.681 242.705 100.814C242.902 100.944 243.078 101.087 243.234 101.243L242.672 102.011C242.638 102.06 242.595 102.102 242.543 102.14C242.492 102.177 242.421 102.195 242.332 102.195C242.243 102.195 242.152 102.164 242.059 102.101C241.97 102.037 241.859 101.967 241.725 101.889C241.595 101.811 241.43 101.74 241.229 101.677C241.033 101.614 240.782 101.583 240.477 101.583C240.14 101.583 239.83 101.644 239.548 101.766C239.265 101.889 239.022 102.067 238.818 102.301C238.618 102.531 238.462 102.815 238.35 103.153C238.239 103.491 238.183 103.875 238.183 104.306C238.183 104.74 238.243 105.128 238.361 105.47C238.484 105.807 238.649 106.093 238.857 106.327C239.069 106.561 239.314 106.739 239.592 106.862C239.874 106.981 240.175 107.04 240.494 107.04C240.684 107.04 240.854 107.031 241.007 107.012C241.162 106.994 241.305 106.962 241.435 106.918C241.569 106.873 241.693 106.815 241.808 106.745C241.927 106.674 242.046 106.585 242.165 106.478C242.206 106.444 242.248 106.416 242.293 106.394C242.337 106.372 242.386 106.361 242.438 106.361ZM251.911 104.306C251.911 104.896 251.81 105.444 251.61 105.949C251.413 106.453 251.133 106.89 250.769 107.257C250.409 107.625 249.975 107.914 249.466 108.126C248.957 108.334 248.393 108.438 247.773 108.438C247.153 108.438 246.589 108.334 246.08 108.126C245.572 107.914 245.135 107.625 244.772 107.257C244.408 106.89 244.126 106.453 243.925 105.949C243.728 105.444 243.63 104.896 243.63 104.306C243.63 103.716 243.728 103.17 243.925 102.669C244.126 102.164 244.408 101.727 244.772 101.36C245.135 100.992 245.572 100.705 246.08 100.497C246.589 100.285 247.153 100.179 247.773 100.179C248.393 100.179 248.957 100.285 249.466 100.497C249.975 100.705 250.409 100.994 250.769 101.366C251.133 101.733 251.413 102.169 251.61 102.674C251.81 103.175 251.911 103.719 251.911 104.306ZM250.201 104.306C250.201 103.883 250.145 103.504 250.034 103.17C249.923 102.832 249.761 102.546 249.55 102.312C249.342 102.075 249.087 101.895 248.787 101.772C248.49 101.646 248.152 101.583 247.773 101.583C247.394 101.583 247.055 101.646 246.754 101.772C246.453 101.895 246.197 102.075 245.986 102.312C245.778 102.546 245.618 102.832 245.507 103.17C245.395 103.504 245.34 103.883 245.34 104.306C245.34 104.733 245.395 105.115 245.507 105.453C245.618 105.787 245.778 106.071 245.986 106.305C246.197 106.539 246.453 106.719 246.754 106.845C247.055 106.968 247.394 107.029 247.773 107.029C248.152 107.029 248.49 106.968 248.787 106.845C249.087 106.719 249.342 106.539 249.55 106.305C249.761 106.071 249.923 105.787 250.034 105.453C250.145 105.115 250.201 104.733 250.201 104.306ZM257.925 106.99V108.349H253.131V100.268H254.801V106.99H257.925ZM263.744 106.99V108.349H258.95V100.268H260.62V106.99H263.744ZM266.45 101.577V103.654H269.145V104.918H266.45V107.04H269.914V108.349H264.768V100.268H269.914V101.577H266.45ZM274.932 104.233H277.705V107.569C277.293 107.87 276.853 108.091 276.386 108.232C275.921 108.369 275.43 108.438 274.91 108.438C274.245 108.438 273.644 108.336 273.106 108.131C272.567 107.924 272.107 107.636 271.725 107.268C271.342 106.901 271.047 106.465 270.839 105.96C270.631 105.455 270.527 104.903 270.527 104.306C270.527 103.701 270.626 103.146 270.822 102.641C271.023 102.136 271.307 101.701 271.674 101.338C272.042 100.974 272.486 100.69 273.005 100.486C273.529 100.281 274.114 100.179 274.759 100.179C275.094 100.179 275.405 100.207 275.695 100.263C275.985 100.315 276.252 100.389 276.497 100.486C276.742 100.578 276.967 100.69 277.171 100.82C277.375 100.95 277.561 101.093 277.728 101.249L277.243 101.995C277.169 102.114 277.072 102.186 276.954 102.212C276.835 102.238 276.705 102.208 276.564 102.123C276.43 102.041 276.298 101.969 276.168 101.906C276.042 101.839 275.907 101.781 275.762 101.733C275.617 101.685 275.459 101.648 275.289 101.622C275.118 101.596 274.921 101.583 274.698 101.583C274.323 101.583 273.984 101.648 273.679 101.778C273.375 101.908 273.115 102.091 272.9 102.329C272.688 102.566 272.525 102.852 272.409 103.186C272.294 103.521 272.237 103.894 272.237 104.306C272.237 104.751 272.3 105.15 272.426 105.503C272.552 105.852 272.731 106.147 272.961 106.388C273.191 106.63 273.466 106.814 273.785 106.94C274.108 107.066 274.466 107.129 274.86 107.129C275.127 107.129 275.365 107.103 275.573 107.051C275.784 106.995 275.99 106.921 276.191 106.828V105.47H275.277C275.17 105.47 275.084 105.442 275.021 105.386C274.962 105.327 274.932 105.252 274.932 105.163V104.233ZM280.753 101.577V103.654H283.448V104.918H280.753V107.04H284.216V108.349H279.071V100.268H284.216V101.577H280.753ZM284.987 101.004C285.121 100.888 285.264 100.781 285.416 100.681C285.572 100.58 285.739 100.493 285.917 100.419C286.099 100.345 286.294 100.287 286.502 100.246C286.714 100.202 286.94 100.179 287.181 100.179C287.515 100.179 287.818 100.226 288.089 100.319C288.36 100.408 288.592 100.538 288.785 100.708C288.978 100.875 289.127 101.078 289.231 101.315C289.338 101.553 289.392 101.818 289.392 102.112C289.392 102.394 289.351 102.639 289.27 102.847C289.192 103.051 289.091 103.229 288.969 103.381C288.85 103.534 288.718 103.665 288.574 103.777C288.429 103.888 288.291 103.992 288.161 104.089C288.032 104.185 287.918 104.282 287.822 104.378C287.729 104.471 287.671 104.575 287.649 104.69L287.51 105.486H286.457L286.352 104.584C286.326 104.406 286.348 104.252 286.418 104.122C286.489 103.988 286.584 103.868 286.702 103.76C286.821 103.649 286.953 103.543 287.098 103.443C287.246 103.339 287.384 103.229 287.51 103.114C287.64 102.995 287.748 102.863 287.833 102.719C287.922 102.57 287.967 102.396 287.967 102.195C287.967 101.95 287.881 101.755 287.71 101.611C287.543 101.466 287.321 101.393 287.042 101.393C286.838 101.393 286.665 101.416 286.524 101.46C286.387 101.505 286.268 101.555 286.168 101.611C286.068 101.663 285.982 101.711 285.912 101.755C285.841 101.8 285.774 101.822 285.711 101.822C285.57 101.822 285.464 101.761 285.394 101.638L284.987 101.004ZM286.029 107.541C286.029 107.419 286.051 107.304 286.095 107.196C286.144 107.085 286.209 106.99 286.29 106.912C286.372 106.83 286.467 106.767 286.574 106.723C286.686 106.674 286.806 106.65 286.936 106.65C287.063 106.65 287.181 106.674 287.293 106.723C287.404 106.767 287.501 106.83 287.582 106.912C287.664 106.99 287.727 107.085 287.772 107.196C287.82 107.304 287.844 107.419 287.844 107.541C287.844 107.667 287.82 107.784 287.772 107.892C287.727 108 287.664 108.094 287.582 108.176C287.501 108.254 287.404 108.315 287.293 108.36C287.181 108.404 287.063 108.427 286.936 108.427C286.806 108.427 286.686 108.404 286.574 108.36C286.467 108.315 286.372 108.254 286.29 108.176C286.209 108.094 286.144 108 286.095 107.892C286.051 107.784 286.029 107.667 286.029 107.541Z" fill="#050038"/>
<path d="M265.244 259.971C258.771 268.21 274.054 281.834 282.504 287.616H287.359C282.684 274.968 271.716 251.732 265.244 259.971Z" fill="white"/>
<path fill-rule="evenodd" clip-rule="evenodd" d="M267.965 259.037C267.28 259.131 266.565 259.531 265.844 260.448C264.408 262.276 264.153 264.409 264.762 266.76C265.378 269.138 266.874 271.697 268.877 274.237C272.819 279.235 278.566 283.967 282.741 286.847H286.253C283.894 280.633 280.205 272.334 276.335 266.382C274.277 263.217 272.232 260.817 270.378 259.695C269.463 259.142 268.663 258.94 267.965 259.037ZM277.616 265.54C281.796 271.97 285.73 281.002 288.076 287.348L288.459 288.385H282.268L282.073 288.251C277.812 285.336 271.811 280.434 267.678 275.193C265.614 272.575 263.974 269.821 263.281 267.147C262.581 264.446 262.843 261.786 264.643 259.495C265.541 258.352 266.584 257.675 267.756 257.513C268.915 257.353 270.07 257.714 271.167 258.378C273.336 259.69 275.538 262.345 277.616 265.54Z" fill="#050038"/>
<path d="M277.649 218.234C263.409 229.508 276.75 269.186 285.201 287.616H299.764C299.225 262.682 295.449 204.141 277.649 218.234Z" fill="#050038"/>
<path fill-rule="evenodd" clip-rule="evenodd" d="M284.428 237.523L282.178 225.142L280.673 225.419L286.007 254.775L278.001 250.616L277.298 251.982L286.355 256.687L292 287.754L293.505 287.478L290.21 269.34L296.099 259.836L294.8 259.023L289.801 267.091L284.973 240.524L288.618 230.421L287.179 229.897L284.428 237.523Z" fill="white"/>
<path d="M320.262 209.561C299.118 211.296 290.595 262.32 288.977 287.616H302.462C315.946 271.354 346.692 207.393 320.262 209.561Z" fill="white"/>
<path fill-rule="evenodd" clip-rule="evenodd" d="M327.113 212.185C325.652 210.802 323.479 210.069 320.324 210.328C315.362 210.735 311.043 214.039 307.306 219.374C303.574 224.703 300.505 231.948 298.028 239.981C293.182 255.695 290.656 274.242 289.795 286.847H302.101C308.79 278.632 319.628 258.917 325.606 241.428C328.634 232.569 330.371 224.405 329.766 218.636C329.464 215.762 328.592 213.584 327.113 212.185ZM327.053 241.927C320.963 259.742 309.866 279.888 303.049 288.108L302.82 288.385H288.161L288.213 287.567C289.025 274.882 291.567 255.737 296.566 239.525C299.065 231.423 302.191 224.006 306.055 218.489C309.914 212.979 314.589 209.255 320.199 208.795C323.651 208.511 326.299 209.302 328.163 211.066C330.009 212.813 330.965 215.404 331.288 218.475C331.93 224.598 330.093 233.034 327.053 241.927Z" fill="#050038"/>
<path d="M318.104 264.85C312.063 262.248 303.243 279.973 299.827 288.646H305.221C310.615 284.852 325.655 268.102 318.104 264.85Z" fill="#050038"/>
<path fill-rule="evenodd" clip-rule="evenodd" d="M316.117 230.857L320.444 218.489L319 217.979L309.248 245.854L304.702 239.468L303.457 240.363L308.628 247.627L294.727 287.361L296.171 287.871L304.047 265.357L311.5 260.621L310.683 259.321L304.866 263.017L315.406 232.887L324.36 228.687L323.713 227.294L316.117 230.857Z" fill="#050038"/>
</g>
<path d="M29.7231 86.027C29.7231 106.969 46.7046 123.946 67.6522 123.946C88.5999 123.946 105.581 106.969 105.581 86.027C105.581 65.0847 88.5999 48.1077 67.6522 48.1077C46.7046 48.1077 29.7231 65.0847 29.7231 86.027Z" fill="#F5A041"/>
<path d="M37.9687 86.0271C37.9687 102.417 51.2585 115.703 67.6523 115.703C84.0461 115.703 97.3359 102.417 97.3359 86.0271C97.3359 69.6375 84.0461 56.3511 67.6523 56.3511C51.2585 56.3511 37.9687 69.6375 37.9687 86.0271Z" fill="white"/>
<path fill-rule="evenodd" clip-rule="evenodd" d="M51.0154 81.0479C51.7303 78.3431 52.9023 76.0172 54.2143 74.3024C55.1826 73.0368 55.4314 71.2154 54.4596 69.9524C53.4879 68.6894 51.6594 68.4469 50.594 69.632C48.2756 72.2109 46.4474 75.7436 45.4351 79.5739C44.1183 84.5564 44.0867 90.3905 46.4535 95.8328C50.6324 105.442 59.5799 108.832 66.5913 108.56C68.184 108.499 69.2018 106.961 68.8892 105.399C68.5766 103.836 67.0475 102.844 65.454 102.81C60.5717 102.705 54.6197 100.138 51.7467 93.532C49.9941 89.502 49.9625 85.0319 51.0154 81.0479Z" fill="#E7E8FF"/>
<path d="M302.877 131.651C302.877 130.544 303.775 129.646 304.882 129.646H346.871C347.476 129.646 348.05 129.92 348.43 130.391L359.508 144.092C360.103 144.827 360.103 145.878 359.508 146.613L348.43 160.315C348.05 160.786 347.476 161.059 346.871 161.059H304.882C303.775 161.059 302.877 160.162 302.877 159.054V131.651Z" fill="#3F53D9"/>
<path d="M314.685 146.81C314.762 146.81 314.826 146.838 314.879 146.893L315.428 147.48C315.157 147.825 314.82 148.086 314.417 148.265C314.016 148.444 313.539 148.533 312.985 148.533C312.483 148.533 312.032 148.448 311.631 148.279C311.231 148.106 310.891 147.868 310.61 147.563C310.33 147.258 310.115 146.896 309.964 146.477C309.813 146.059 309.737 145.601 309.737 145.105C309.737 144.773 309.773 144.457 309.844 144.159C309.918 143.857 310.024 143.58 310.162 143.327C310.301 143.075 310.467 142.847 310.661 142.643C310.858 142.44 311.08 142.268 311.326 142.126C311.573 141.981 311.841 141.872 312.13 141.798C312.423 141.721 312.734 141.683 313.063 141.683C313.31 141.683 313.542 141.704 313.761 141.747C313.982 141.79 314.189 141.85 314.38 141.927C314.571 142.004 314.746 142.098 314.906 142.209C315.069 142.317 315.216 142.436 315.345 142.565L314.879 143.202C314.851 143.242 314.815 143.278 314.772 143.309C314.729 143.339 314.671 143.355 314.597 143.355C314.523 143.355 314.447 143.329 314.37 143.276C314.297 143.224 314.204 143.165 314.093 143.101C313.985 143.036 313.848 142.978 313.682 142.925C313.519 142.873 313.311 142.847 313.059 142.847C312.778 142.847 312.521 142.897 312.287 142.999C312.053 143.101 311.851 143.249 311.682 143.443C311.516 143.633 311.386 143.869 311.294 144.149C311.202 144.429 311.155 144.748 311.155 145.105C311.155 145.466 311.205 145.788 311.303 146.071C311.405 146.351 311.542 146.588 311.714 146.782C311.89 146.976 312.093 147.124 312.324 147.226C312.558 147.324 312.808 147.373 313.072 147.373C313.229 147.373 313.371 147.366 313.497 147.35C313.627 147.335 313.745 147.309 313.853 147.272C313.964 147.235 314.067 147.187 314.163 147.129C314.261 147.07 314.36 146.996 314.458 146.907C314.492 146.879 314.527 146.856 314.564 146.838C314.601 146.819 314.641 146.81 314.685 146.81ZM322.542 145.105C322.542 145.595 322.459 146.049 322.293 146.468C322.13 146.887 321.897 147.249 321.595 147.554C321.297 147.858 320.936 148.099 320.514 148.274C320.092 148.447 319.624 148.533 319.11 148.533C318.596 148.533 318.128 148.447 317.706 148.274C317.284 148.099 316.922 147.858 316.62 147.554C316.319 147.249 316.085 146.887 315.918 146.468C315.755 146.049 315.674 145.595 315.674 145.105C315.674 144.616 315.755 144.163 315.918 143.747C316.085 143.329 316.319 142.967 316.62 142.662C316.922 142.357 317.284 142.118 317.706 141.946C318.128 141.77 318.596 141.683 319.11 141.683C319.624 141.683 320.092 141.77 320.514 141.946C320.936 142.118 321.297 142.359 321.595 142.667C321.897 142.971 322.13 143.333 322.293 143.752C322.459 144.168 322.542 144.619 322.542 145.105ZM321.124 145.105C321.124 144.754 321.078 144.44 320.986 144.163C320.893 143.883 320.759 143.646 320.584 143.452C320.411 143.255 320.2 143.105 319.951 143.004C319.704 142.899 319.424 142.847 319.11 142.847C318.796 142.847 318.514 142.899 318.265 143.004C318.015 143.105 317.803 143.255 317.627 143.452C317.455 143.646 317.323 143.883 317.23 144.163C317.138 144.44 317.092 144.754 317.092 145.105C317.092 145.46 317.138 145.777 317.23 146.057C317.323 146.334 317.455 146.57 317.627 146.764C317.803 146.958 318.015 147.107 318.265 147.212C318.514 147.313 318.796 147.364 319.11 147.364C319.424 147.364 319.704 147.313 319.951 147.212C320.2 147.107 320.411 146.958 320.584 146.764C320.759 146.57 320.893 146.334 320.986 146.057C321.078 145.777 321.124 145.46 321.124 145.105ZM326.298 147.35C326.523 147.35 326.724 147.313 326.903 147.239C327.082 147.162 327.233 147.055 327.356 146.916C327.479 146.778 327.573 146.61 327.638 146.413C327.702 146.216 327.735 145.994 327.735 145.747V141.757H329.12V145.747C329.12 146.154 329.054 146.528 328.922 146.87C328.792 147.209 328.606 147.501 328.363 147.748C328.119 147.994 327.824 148.186 327.476 148.325C327.128 148.464 326.735 148.533 326.298 148.533C325.861 148.533 325.467 148.464 325.115 148.325C324.768 148.186 324.472 147.994 324.229 147.748C323.985 147.501 323.797 147.209 323.665 146.87C323.536 146.528 323.471 146.154 323.471 145.747V141.757H324.857V145.747C324.857 145.994 324.889 146.216 324.954 146.413C325.018 146.61 325.112 146.778 325.236 146.916C325.359 147.055 325.51 147.162 325.688 147.239C325.867 147.313 326.07 147.35 326.298 147.35ZM332.535 144.93C332.76 144.93 332.954 144.902 333.117 144.847C333.28 144.788 333.414 144.71 333.519 144.611C333.623 144.51 333.7 144.391 333.75 144.256C333.799 144.12 333.824 143.972 333.824 143.812C333.824 143.495 333.717 143.249 333.505 143.073C333.296 142.897 332.975 142.81 332.544 142.81H331.824V144.93H332.535ZM335.782 148.459H334.53C334.296 148.459 334.127 148.37 334.022 148.191L332.747 146.135C332.695 146.055 332.637 145.997 332.572 145.96C332.51 145.923 332.418 145.905 332.295 145.905H331.824V148.459H330.438V141.757H332.544C333.012 141.757 333.413 141.806 333.745 141.904C334.078 142 334.35 142.134 334.563 142.306C334.775 142.479 334.931 142.685 335.029 142.925C335.128 143.162 335.177 143.424 335.177 143.71C335.177 143.932 335.145 144.143 335.08 144.343C335.018 144.54 334.928 144.72 334.808 144.884C334.687 145.047 334.54 145.192 334.364 145.318C334.189 145.444 333.988 145.546 333.764 145.623C333.853 145.672 333.936 145.732 334.013 145.803C334.09 145.871 334.159 145.952 334.221 146.048L335.782 148.459ZM340.068 143.041C340.025 143.111 339.98 143.164 339.934 143.198C339.891 143.229 339.834 143.244 339.763 143.244C339.695 143.244 339.621 143.221 339.541 143.175C339.464 143.125 339.374 143.073 339.269 143.018C339.164 142.962 339.044 142.911 338.909 142.865C338.773 142.816 338.614 142.791 338.433 142.791C338.112 142.791 337.872 142.864 337.712 143.008C337.552 143.15 337.472 143.336 337.472 143.567C337.472 143.715 337.515 143.838 337.601 143.937C337.691 144.032 337.806 144.115 337.948 144.186C338.092 144.257 338.256 144.32 338.437 144.376C338.619 144.431 338.805 144.493 338.996 144.56C339.187 144.625 339.374 144.702 339.555 144.791C339.737 144.881 339.899 144.993 340.04 145.129C340.185 145.264 340.3 145.43 340.387 145.627C340.476 145.821 340.521 146.059 340.521 146.339C340.521 146.644 340.467 146.93 340.359 147.198C340.254 147.463 340.102 147.695 339.902 147.895C339.701 148.092 339.454 148.248 339.158 148.362C338.865 148.476 338.533 148.533 338.16 148.533C337.948 148.533 337.735 148.511 337.523 148.468C337.313 148.425 337.11 148.365 336.913 148.288C336.719 148.211 336.536 148.119 336.363 148.011C336.191 147.903 336.04 147.783 335.911 147.651L336.317 146.995C336.351 146.945 336.396 146.905 336.451 146.875C336.507 146.841 336.565 146.824 336.627 146.824C336.71 146.824 336.798 146.855 336.89 146.916C336.982 146.978 337.089 147.045 337.209 147.119C337.329 147.193 337.467 147.261 337.624 147.323C337.785 147.384 337.975 147.415 338.197 147.415C338.521 147.415 338.77 147.341 338.945 147.193C339.124 147.045 339.213 146.825 339.213 146.533C339.213 146.363 339.169 146.226 339.079 146.122C338.993 146.017 338.879 145.929 338.738 145.858C338.596 145.788 338.434 145.727 338.253 145.678C338.071 145.626 337.885 145.569 337.694 145.507C337.503 145.446 337.316 145.372 337.135 145.286C336.953 145.199 336.791 145.085 336.65 144.944C336.508 144.802 336.393 144.627 336.303 144.417C336.217 144.208 336.174 143.948 336.174 143.637C336.174 143.387 336.223 143.145 336.322 142.911C336.42 142.677 336.565 142.469 336.756 142.288C336.947 142.106 337.181 141.96 337.458 141.849C337.738 141.738 338.059 141.683 338.419 141.683C338.822 141.683 339.195 141.746 339.537 141.872C339.882 141.995 340.173 142.168 340.41 142.389L340.068 143.041ZM342.921 142.842V144.565H345.156V145.614H342.921V147.373H345.794V148.459H341.526V141.757H345.794V142.842H342.921ZM346.433 142.366C346.544 142.271 346.663 142.182 346.789 142.098C346.918 142.015 347.057 141.943 347.204 141.881C347.355 141.82 347.517 141.772 347.69 141.738C347.865 141.701 348.053 141.683 348.253 141.683C348.53 141.683 348.781 141.721 349.006 141.798C349.231 141.872 349.423 141.98 349.583 142.121C349.743 142.26 349.867 142.428 349.953 142.625C350.042 142.822 350.087 143.042 350.087 143.285C350.087 143.52 350.053 143.723 349.985 143.895C349.921 144.065 349.837 144.212 349.736 144.339C349.637 144.465 349.528 144.574 349.408 144.667C349.288 144.759 349.174 144.845 349.066 144.925C348.958 145.005 348.864 145.085 348.784 145.165C348.707 145.242 348.66 145.329 348.641 145.424L348.526 146.085H347.653L347.565 145.336C347.543 145.189 347.562 145.061 347.62 144.953C347.679 144.842 347.757 144.742 347.856 144.653C347.954 144.56 348.064 144.473 348.184 144.389C348.307 144.303 348.421 144.212 348.526 144.117C348.633 144.018 348.723 143.909 348.793 143.789C348.867 143.666 348.904 143.521 348.904 143.355C348.904 143.152 348.834 142.99 348.692 142.87C348.553 142.75 348.369 142.69 348.138 142.69C347.968 142.69 347.825 142.708 347.708 142.745C347.594 142.782 347.496 142.824 347.412 142.87C347.329 142.913 347.258 142.953 347.2 142.99C347.141 143.027 347.086 143.045 347.034 143.045C346.917 143.045 346.829 142.994 346.77 142.893L346.433 142.366ZM347.297 147.789C347.297 147.688 347.315 147.592 347.352 147.503C347.392 147.41 347.446 147.332 347.514 147.267C347.582 147.199 347.66 147.147 347.75 147.11C347.842 147.07 347.942 147.05 348.05 147.05C348.154 147.05 348.253 147.07 348.345 147.11C348.438 147.147 348.518 147.199 348.586 147.267C348.653 147.332 348.706 147.41 348.743 147.503C348.783 147.592 348.803 147.688 348.803 147.789C348.803 147.894 348.783 147.991 348.743 148.08C348.706 148.169 348.653 148.248 348.586 148.316C348.518 148.38 348.438 148.431 348.345 148.468C348.253 148.505 348.154 148.524 348.05 148.524C347.942 148.524 347.842 148.505 347.75 148.468C347.66 148.431 347.582 148.38 347.514 148.316C347.446 148.248 347.392 148.169 347.352 148.08C347.315 147.991 347.297 147.894 347.297 147.789Z" fill="#C5C3E5"/>
<path d="M251.16 35.1223C251.16 46.6047 241.852 55.913 230.369 55.913C218.887 55.913 209.578 46.6047 209.578 35.1223C209.578 23.6399 218.887 14.3315 230.369 14.3315C241.852 14.3315 251.16 23.6399 251.16 35.1223Z" fill="white"/>
<path fill-rule="evenodd" clip-rule="evenodd" d="M230.368 14.8017C219.146 14.8017 210.048 23.8996 210.048 35.1224C210.048 46.3451 219.146 55.443 230.368 55.443C241.591 55.443 250.689 46.3451 250.689 35.1224C250.689 23.8996 241.591 14.8017 230.368 14.8017ZM209.108 35.1224C209.108 23.3803 218.626 13.8615 230.368 13.8615C242.111 13.8615 251.629 23.3803 251.629 35.1224C251.629 46.8644 242.111 56.3832 230.368 56.3832C218.626 56.3832 209.108 46.8644 209.108 35.1224Z" fill="#050038"/>
<path d="M227.432 41.6596C227.432 39.7967 227.656 38.313 228.104 37.2085C228.552 36.104 229.37 35.0195 230.557 33.9549C231.757 32.8771 232.554 32.0055 232.95 31.3401C233.346 30.6615 233.543 29.9496 233.543 29.2044C233.543 26.9555 232.515 25.8311 230.458 25.8311C229.482 25.8311 228.698 26.1371 228.104 26.7492C227.524 27.348 227.221 28.1797 227.194 29.2443H221.458C221.485 26.7027 222.296 24.7133 223.891 23.2761C225.5 21.839 227.689 21.1204 230.458 21.1204C233.253 21.1204 235.422 21.8057 236.965 23.1763C238.508 24.5336 239.279 26.4565 239.279 28.9449C239.279 30.076 239.029 31.1472 238.528 32.1585C238.026 33.1565 237.15 34.2676 235.897 35.4919L234.295 37.0288C233.293 38.0002 232.719 39.138 232.574 40.4421L232.495 41.6596H227.432ZM226.858 47.7875C226.858 46.8959 227.155 46.164 227.748 45.5918C228.355 45.0063 229.126 44.7136 230.062 44.7136C230.998 44.7136 231.763 45.0063 232.357 45.5918C232.963 46.164 233.266 46.8959 233.266 47.7875C233.266 48.6657 232.97 49.391 232.376 49.9632C231.796 50.5354 231.025 50.8215 230.062 50.8215C229.1 50.8215 228.322 50.5354 227.728 49.9632C227.148 49.391 226.858 48.6657 226.858 47.7875Z" fill="#3F53D9"/>
</svg>
